<?xml version="1.0" standalone="no"?>
<!DOCTYPE svg PUBLIC "-//W3C//DTD SVG 20010904//EN"
 "http://www.w3.org/TR/2001/REC-SVG-20010904/DTD/svg10.dtd">
<svg version="1.0" xmlns="http://www.w3.org/2000/svg"
 width="840.000000pt" height="861.000000pt" viewBox="0 0 840.000000 861.000000"
 preserveAspectRatio="xMidYMid meet">

<g transform="translate(0.000000,861.000000) scale(0.100000,-0.100000)"
fill="#000000" stroke="none">
<path d="M4275 8203 c-310 -15 -664 -153 -940 -367 -88 -69 -239 -219 -310
-311 -90 -115 -149 -211 -210 -338 -172 -359 -222 -748 -145 -1129 43 -209
154 -489 251 -631 l41 -60 -1079 -1081 c-1039 -1042 -1393 -1399 -1575 -1592
-79 -83 -87 -95 -98 -149 -34 -165 32 -312 172 -387 36 -19 58 -23 138 -23
100 0 113 4 226 71 l32 18 270 -263 c148 -144 293 -280 322 -302 134 -101 299
-83 425 46 70 71 90 132 83 250 -3 47 -13 95 -22 114 -22 42 -110 147 -205
244 l-76 77 192 192 192 192 128 -125 c154 -150 222 -191 313 -190 148 0 257
68 316 195 46 100 37 229 -22 320 -14 21 -150 164 -301 317 l-276 279 594 598
c327 328 616 626 642 662 26 36 65 104 87 153 52 119 131 234 238 347 l89 95
-118 123 c-193 200 -264 311 -324 502 -180 575 97 1191 642 1430 173 76 203
82 443 87 242 5 288 -1 441 -62 151 -61 244 -117 395 -240 l31 -25 84 19 c159
37 243 45 442 46 140 0 197 3 197 11 0 38 -186 268 -332 410 -129 126 -248
209 -423 295 -325 159 -557 202 -970 182z"/>
<path d="M5636 6819 c-281 -30 -603 -177 -810 -370 -187 -174 -322 -426 -345
-645 -5 -49 -13 -302 -16 -561 l-7 -473 -105 0 c-143 0 -282 -17 -373 -45
-228 -73 -409 -268 -477 -515 -17 -60 -18 -127 -18 -845 0 -581 3 -808 13
-890 78 -654 413 -1234 938 -1626 255 -190 557 -331 879 -410 259 -63 792 -63
1050 0 490 121 873 348 1225 727 259 279 442 627 546 1034 51 201 56 300 58
1170 1 856 3 821 -64 965 -88 189 -245 331 -432 390 -87 27 -235 45 -379 45
l-99 0 -1 113 c0 61 -4 308 -8 547 l-9 435 -27 85 c-130 404 -496 725 -955
838 -149 37 -401 50 -584 31z m324 -659 c218 -26 400 -123 511 -270 83 -111
81 -91 86 -637 l5 -483 -711 0 -711 0 0 463 c0 582 0 582 106 696 171 185 422
266 714 231z m53 -2704 c73 -35 168 -130 204 -204 26 -52 28 -67 28 -167 0
-100 -3 -115 -28 -167 -29 -60 -156 -198 -181 -198 -37 0 -33 -15 98 -342 94
-233 103 -268 87 -311 -21 -55 -55 -61 -369 -65 l-284 -4 -24 23 c-14 13 -34
39 -46 57 l-20 33 37 107 c20 59 68 189 106 288 38 100 69 183 69 186 0 3 -27
22 -60 42 -108 67 -176 176 -195 317 -22 154 83 335 237 410 61 29 67 30 174
27 96 -4 118 -8 167 -32z"/>
</g>
</svg>
