<?xml version="1.0" standalone="no"?>
<!DOCTYPE svg PUBLIC "-//W3C//DTD SVG 20010904//EN"
 "http://www.w3.org/TR/2001/REC-SVG-20010904/DTD/svg10.dtd">
<svg version="1.0" xmlns="http://www.w3.org/2000/svg"
 width="1280.000000pt" height="560.000000pt" viewBox="0 0 1280.000000 560.000000"
 preserveAspectRatio="xMidYMid meet">

<g transform="translate(0.000000,560.000000) scale(0.100000,-0.100000)"
fill="#000000" stroke="none">
<path d="M5944 2802 l-901 -2777 445 -3 c245 -1 447 0 450 2 2 3 404 1228 893
2723 489 1495 898 2744 908 2776 l20 57 -457 0 -457 0 -901 -2778z"/>
<path d="M3560 5233 c-146 -86 -735 -426 -1310 -756 -575 -329 -1101 -632
-1170 -672 -468 -271 -759 -442 -822 -484 -124 -82 -187 -163 -234 -301 -15
-42 -19 -82 -18 -175 0 -104 4 -131 28 -200 39 -113 98 -209 180 -290 67 -66
169 -127 1840 -1105 972 -569 1772 -1036 1777 -1038 5 -2 9 292 9 696 l0 700
-332 195 c-797 467 -1353 767 -1797 971 -87 40 -102 49 -90 60 13 12 475 257
1109 586 479 249 895 468 1000 527 l105 58 3 693 c1 380 -1 692 -5 691 -5 0
-127 -71 -273 -156z"/>
<path d="M8960 4691 l0 -698 308 -181 c798 -468 1383 -785 1820 -985 56 -26
102 -50 102 -54 -1 -8 -287 -160 -985 -523 -680 -355 -1033 -540 -1135 -597
l-105 -59 -3 -692 c-1 -381 0 -692 4 -692 3 0 96 53 207 118 254 150 668 388
1582 912 1734 994 1827 1049 1909 1141 164 182 179 478 36 721 -47 78 -126
167 -184 207 -45 31 -3544 2081 -3551 2081 -3 0 -5 -314 -5 -699z"/>
</g>
</svg>
